<?xml version="1.0" encoding="iso-8859-1"?>
<!-- Generator: Adobe Illustrator 19.0.0, SVG Export Plug-In . SVG Version: 6.00 Build 0)  -->
<svg xmlns="http://www.w3.org/2000/svg" xmlns:xlink="http://www.w3.org/1999/xlink" version="1.1" id="Capa_1" x="0px" y="0px" viewBox="0 0 510.728 510.728" style="enable-background:new 0 0 510.728 510.728;" xml:space="preserve" width="512px" height="512px">
<g>
	<g>
		<path d="M391.027,195.202c-66.008,0-119.702,53.699-119.702,119.702c0,66.008,53.694,119.702,119.702,119.702    c66.007,0,119.701-53.694,119.701-119.702C510.728,248.9,457.034,195.202,391.027,195.202z M391.027,426.627    c-61.605,0-111.722-50.118-111.722-111.723s50.118-111.722,111.722-111.722c61.605,0,111.722,50.117,111.722,111.722    S452.632,426.627,391.027,426.627z" fill="#259a4e"/>
	</g>
</g>
<g>
	<g>
		<path d="M442.726,296.653l-49.354-35.845c-1.403-1.013-3.289-1.013-4.691,0l-49.354,35.845c-1.402,1.013-1.978,2.813-1.449,4.458    l18.82,58.027c0.538,1.644,2.066,2.758,3.795,2.758h61.075c1.73,0,3.265-1.114,3.795-2.758l18.812-58.027    C444.705,299.466,444.128,297.666,442.726,296.653z M418.668,353.917h-55.276l-17.028-52.51l44.662-32.435l44.67,32.435    L418.668,353.917z" fill="#259a4e"/>
	</g>
</g>
<g>
	<g>
		<path d="M391.027,223.343c-2.206,0-3.99,1.784-3.99,3.99v36.706c0,2.205,1.784,3.99,3.99,3.99c2.205,0,3.989-1.785,3.989-3.99    v-36.706C395.016,225.128,393.232,223.343,391.027,223.343z" fill="#259a4e"/>
	</g>
</g>
<g>
	<g>
		<path d="M392.804,223.764l-41.256-20.566c-1.98-0.993-4.373-0.175-5.354,1.789c-0.989,1.972-0.179,4.369,1.784,5.35l41.272,20.566    c0.569,0.288,1.176,0.42,1.777,0.42c1.465,0,2.868-0.81,3.57-2.209C395.578,227.142,394.783,224.746,392.804,223.764z" fill="#259a4e"/>
	</g>
</g>
<g>
	<g>
		<path d="M435.868,204.994c-0.989-1.964-3.382-2.763-5.361-1.793L389.25,223.76c-1.98,0.986-2.774,3.378-1.792,5.354    c0.701,1.399,2.103,2.209,3.569,2.209c0.6,0,1.208-0.132,1.777-0.416l41.272-20.559C436.04,209.362,436.85,206.97,435.868,204.994    z" fill="#259a4e"/>
	</g>
</g>
<g>
	<g>
		<path d="M343.77,295.477l-34.929-11.37c-2.088-0.686-4.347,0.467-5.026,2.563c-0.678,2.096,0.46,4.348,2.564,5.027l34.929,11.369    c0.404,0.133,0.826,0.195,1.23,0.195c1.683,0,3.242-1.067,3.796-2.75C347.012,298.415,345.874,296.163,343.77,295.477z" fill="#259a4e"/>
	</g>
</g>
<g>
	<g>
		<path d="M310.4,285.055c-1.575-1.55-4.099-1.519-5.642,0.055l-32.139,32.802c-1.543,1.575-1.527,4.099,0.047,5.642    c0.779,0.764,1.792,1.139,2.798,1.139c1.036,0,2.064-0.398,2.844-1.194l32.154-32.801    C312.005,289.123,311.974,286.598,310.4,285.055z" fill="#259a4e"/>
	</g>
</g>
<g>
	<g>
		<path d="M311.553,287.31l-6.78-45.477c-0.327-2.178-2.322-3.624-4.536-3.359c-2.181,0.328-3.685,2.357-3.366,4.536l6.796,45.477    c0.296,1.979,1.994,3.397,3.943,3.397c0.187,0,0.389-0.016,0.591-0.039C310.383,291.518,311.879,289.484,311.553,287.31z" fill="#259a4e"/>
	</g>
</g>
<g>
	<g>
		<path d="M363.407,353.074c-1.776-1.294-4.286-0.904-5.571,0.881L336.264,383.6c-1.301,1.784-0.903,4.278,0.881,5.572    c0.701,0.515,1.527,0.764,2.338,0.764c1.239,0,2.455-0.569,3.234-1.645l21.571-29.637    C365.59,356.869,365.191,354.376,363.407,353.074z" fill="#259a4e"/>
	</g>
</g>
<g>
	<g>
		<path d="M364.218,424.723l-21.189-40.625c-1.021-1.948-3.421-2.712-5.385-1.691c-1.948,1.022-2.712,3.43-1.691,5.385    l21.189,40.626c0.717,1.364,2.104,2.143,3.538,2.143c0.623,0,1.255-0.139,1.848-0.453    C364.483,429.087,365.231,426.679,364.218,424.723z" fill="#259a4e"/>
	</g>
</g>
<g>
	<g>
		<path d="M340.146,382.01l-45.215-7.591c-2.237-0.389-4.232,1.107-4.598,3.273c-0.368,2.175,1.098,4.233,3.272,4.598l45.216,7.591    c0.225,0.039,0.444,0.055,0.662,0.055c1.917,0,3.609-1.38,3.936-3.327C343.786,384.434,342.321,382.376,340.146,382.01z" fill="#259a4e"/>
	</g>
</g>
<g>
	<g>
		<path d="M445.805,383.592l-21.571-29.637c-1.301-1.777-3.787-2.167-5.572-0.881c-1.784,1.302-2.182,3.795-0.881,5.58    l21.572,29.637c0.787,1.068,1.994,1.637,3.233,1.637c0.81,0,1.636-0.249,2.338-0.764    C446.709,387.87,447.107,385.376,445.805,383.592z" fill="#259a4e"/>
	</g>
</g>
<g>
	<g>
		<path d="M491.721,377.708c-0.366-2.181-2.447-3.677-4.59-3.281l-45.216,7.575c-2.167,0.367-3.631,2.424-3.273,4.599    c0.327,1.947,2.019,3.327,3.928,3.327c0.219,0,0.444-0.015,0.671-0.055l45.199-7.575    C490.622,381.933,492.087,379.883,491.721,377.708z" fill="#259a4e"/>
	</g>
</g>
<g>
	<g>
		<path d="M444.425,382.408c-1.971-1.021-4.364-0.257-5.385,1.691l-21.205,40.641c-1.013,1.956-0.265,4.364,1.691,5.385    c0.592,0.312,1.224,0.452,1.847,0.452c1.434,0,2.821-0.779,3.538-2.142l21.205-40.642    C447.138,385.838,446.374,383.429,444.425,382.408z" fill="#259a4e"/>
	</g>
</g>
<g>
	<g>
		<path d="M478.239,286.653c-0.677-2.095-2.929-3.233-5.026-2.563l-34.929,11.386c-2.088,0.685-3.243,2.937-2.556,5.034    c0.545,1.684,2.119,2.751,3.795,2.751c0.413,0,0.826-0.062,1.24-0.196l34.913-11.385    C477.78,290.995,478.917,288.742,478.239,286.653z" fill="#259a4e"/>
	</g>
</g>
<g>
	<g>
		<path d="M481.815,238.489c-2.151-0.281-4.208,1.184-4.535,3.359l-6.78,45.454c-0.327,2.174,1.169,4.208,3.352,4.535    c0.202,0.023,0.404,0.039,0.592,0.039c1.948,0,3.647-1.418,3.942-3.397l6.795-45.454    C485.502,240.846,483.998,238.817,481.815,238.489z" fill="#259a4e"/>
	</g>
</g>
<g>
	<g>
		<path d="M509.436,317.897l-32.139-32.802c-1.537-1.575-4.053-1.606-5.643-0.055c-1.574,1.537-1.59,4.069-0.047,5.643    l32.139,32.801c0.78,0.795,1.808,1.193,2.845,1.193c1.004,0,2.018-0.375,2.798-1.138    C510.963,321.996,510.979,319.471,509.436,317.897z" fill="#259a4e"/>
	</g>
</g>
<g>
	<g>
		<path d="M286.895,416.94c-0.709-2.081-2.992-3.188-5.065-2.479c-8.72,2.986-54.517,17.535-100.087,10.054    c-48.98-8.028-145.131-91.312-174.581-129.935c-1.333-1.753-3.842-2.096-5.592-0.756c-1.753,1.341-2.088,3.842-0.752,5.596    c26.781,35.123,124.923,124.004,179.631,132.974c9.539,1.558,19.073,2.197,28.301,2.197c36.674,0,68.451-10.108,75.667-12.578    C286.505,421.296,287.612,419.029,286.895,416.94z" fill="#259a4e"/>
	</g>
</g>
<g>
	<g>
		<path d="M286.894,401.018c-0.709-2.089-2.992-3.18-5.065-2.479c-0.514,0.179-52.291,17.667-97.507,10.225    c-43.181-7.076-142.048-92.231-170.426-129.444c-1.325-1.745-3.842-2.097-5.592-0.756c-1.753,1.341-2.089,3.842-0.752,5.596    c29.766,39.028,129.779,124.986,175.477,132.475c8.311,1.372,16.818,1.933,25.203,1.933c39.234,0,75.749-12.328,76.184-12.477    C286.504,405.374,287.611,403.107,286.894,401.018z" fill="#259a4e"/>
	</g>
</g>
<g>
	<g>
		<path d="M12.329,278.09c-2.027-0.889-4.372,0.031-5.257,2.042L0.35,295.406c-0.888,2.019,0.027,4.372,2.046,5.261    c0.523,0.226,1.068,0.335,1.602,0.335c1.535,0,3-0.889,3.656-2.385l6.72-15.274C15.263,281.332,14.347,278.979,12.329,278.09z" fill="#259a4e"/>
	</g>
</g>
<g>
	<g>
		<path d="M156.061,264.835c-0.028,0-0.059,0-0.09,0c-14.039,0.311-34.858-0.989-54.738-9.068    c-14.737-5.985-18.582-19.035-21.392-28.562c-1.777-6.028-3.179-10.789-6.994-12.835c-1.289-0.694-3.425-1.333-7.01-0.145    c-1.087,0.589-27.007,15.014-58.495,65.4c-1.169,1.871-0.6,4.333,1.266,5.494c0.658,0.413,1.391,0.608,2.112,0.608    c1.329,0,2.63-0.663,3.386-1.869c29.965-47.948,54.879-62.248,54.945-62.47c0.963,0.705,2.217,4.964,3.133,8.073    c3.086,10.459,7.742,26.267,26.049,33.702c21.147,8.584,43.173,9.94,57.918,9.652c2.205-0.047,3.951-1.879,3.9-4.076    C160,266.565,158.224,264.835,156.061,264.835z" fill="#259a4e"/>
	</g>
</g>
<g>
	<g>
		<path d="M280.42,375.598c-3.631-3.733-11.463-6.048-25.004-9.82c-16.763-4.675-39.721-11.073-47.795-22.568    c-1.266-1.808-3.748-2.245-5.556-0.974c-1.805,1.271-2.241,3.756-0.975,5.556c9.711,13.833,33.262,20.402,52.183,25.671    c9.403,2.626,19.12,5.331,21.428,7.699c4.854,4.996,4.862,16.67,4.449,20.753c-0.218,2.19,1.386,4.146,3.569,4.364    c0.14,0.015,0.28,0.023,0.405,0.023c2.026,0,3.756-1.528,3.975-3.585C287.285,400.839,288.728,384.139,280.42,375.598z" fill="#259a4e"/>
	</g>
</g>
<g>
	<g>
		<path d="M283.124,398.322c-2.205,0-3.99,1.784-3.99,3.99v15.921c0,2.205,1.785,3.989,3.99,3.989c2.205,0,3.99-1.784,3.99-3.989    v-15.921C287.114,400.106,285.329,398.322,283.124,398.322z" fill="#259a4e"/>
	</g>
</g>
<g>
	<g>
		<path d="M207.331,342.85c-34.477-38.684-40.991-89.62-41.05-90.131c-0.264-2.182-2.24-3.744-4.442-3.479    c-2.185,0.261-3.744,2.248-3.483,4.434c0.261,2.182,6.827,53.881,43.022,94.484c0.787,0.88,1.882,1.332,2.977,1.332    c0.947,0,1.893-0.335,2.653-1.013C208.656,347.011,208.8,344.495,207.331,342.85z" fill="#259a4e"/>
	</g>
</g>
<g>
	<g>
		<path d="M181.096,249.208h-18.777c-2.205,0-3.99,1.784-3.99,3.99c0,2.205,1.785,3.991,3.99,3.991h18.777    c2.206,0,3.99-1.785,3.99-3.991C185.086,250.993,183.302,249.208,181.096,249.208z" fill="#259a4e"/>
	</g>
</g>
<g>
	<g>
		<path d="M207.926,343.715c-18.205-36.409-22.807-90.303-22.85-90.844c-0.18-2.198-2.066-3.753-4.306-3.651    c-2.193,0.183-3.83,2.108-3.651,4.306c0.187,2.263,4.761,55.947,23.667,93.759c0.701,1.402,2.108,2.205,3.573,2.205    c0.599,0,1.208-0.133,1.782-0.421C208.113,348.087,208.911,345.687,207.926,343.715z" fill="#259a4e"/>
	</g>
</g>
<g>
	<g>
		<path d="M186.886,314.226c-1.01-1.971-3.418-2.743-5.37-1.738l-12.355,6.32c-1.964,1.006-2.739,3.414-1.738,5.37    c0.709,1.387,2.109,2.174,3.558,2.174c0.612,0,1.231-0.139,1.811-0.437l12.356-6.32    C187.112,318.59,187.887,316.19,186.886,314.226z" fill="#259a4e"/>
	</g>
</g>
<g>
	<g>
		<path d="M175.139,287.729c-1.014-1.964-3.418-2.735-5.37-1.738l-13.56,6.936c-1.964,1.006-2.739,3.414-1.738,5.37    c0.709,1.387,2.109,2.174,3.558,2.174c0.611,0,1.231-0.139,1.812-0.437l13.56-6.936    C175.365,292.092,176.14,289.693,175.139,287.729z" fill="#259a4e"/>
	</g>
</g>
<g>
	<g>
		<path d="M181.321,233.977c-1.773-1.302-4.271-0.92-5.576,0.869l-4.13,5.649c-1.297,1.777-0.911,4.274,0.869,5.576    c0.71,0.519,1.532,0.768,2.35,0.768c1.232,0,2.444-0.565,3.226-1.636l4.13-5.65C183.487,237.776,183.101,235.278,181.321,233.977z    " fill="#259a4e"/>
	</g>
</g>
<g>
	<g>
		<path d="M106.142,183.337c-1.781-1.302-4.279-0.912-5.576,0.869l-22.834,31.25c-1.298,1.781-0.912,4.274,0.869,5.576    c0.709,0.518,1.536,0.768,2.35,0.768c1.231,0,2.443-0.565,3.227-1.637l22.833-31.25    C108.309,187.132,107.923,184.639,106.142,183.337z" fill="#259a4e"/>
	</g>
</g>
<g>
	<g>
		<path d="M169.967,76.891c-1.781-1.301-4.275-0.911-5.576,0.869L91.21,177.909c-1.297,1.776-0.911,4.274,0.869,5.576    c0.71,0.518,1.536,0.768,2.35,0.768c1.231,0,2.443-0.565,3.227-1.637l73.18-100.149C172.133,80.69,171.747,78.192,169.967,76.891z    " fill="#259a4e"/>
	</g>
</g>
<g>
	<g>
		<path d="M262.896,139.478c-1.781-1.306-4.279-0.912-5.576,0.869l-73.189,100.148c-1.297,1.777-0.911,4.274,0.869,5.576    c0.71,0.519,1.536,0.768,2.35,0.768c1.231,0,2.443-0.565,3.225-1.637l73.189-100.148    C265.058,143.277,264.676,140.779,262.896,139.478z" fill="#259a4e"/>
	</g>
</g>
<g>
	<g>
		<path d="M189.582,239.541l-92.92-62.587c-1.816-1.242-4.306-0.752-5.537,1.08c-1.232,1.828-0.748,4.306,1.079,5.537l92.921,62.586    c0.682,0.464,1.457,0.682,2.225,0.682c1.282,0,2.545-0.616,3.312-1.761C191.893,243.25,191.41,240.772,189.582,239.541z" fill="#259a4e"/>
	</g>
</g>
<g>
	<g>
		<path d="M131.672,426.627H3.99c-2.205,0-3.99,1.784-3.99,3.989c0,2.206,1.785,3.99,3.99,3.99h127.682    c2.206,0,3.99-1.784,3.99-3.99C135.662,428.411,133.878,426.627,131.672,426.627z" fill="#259a4e"/>
	</g>
</g>
<g>
</g>
<g>
</g>
<g>
</g>
<g>
</g>
<g>
</g>
<g>
</g>
<g>
</g>
<g>
</g>
<g>
</g>
<g>
</g>
<g>
</g>
<g>
</g>
<g>
</g>
<g>
</g>
<g>
</g>
</svg>
