<?xml version="1.0"?>
<svg xmlns="http://www.w3.org/2000/svg" height="512px" viewBox="0 -51 511.99959 511" width="512px"><path d="m223.972656 83.304688c1.464844 1.464843 3.382813 2.199218 5.300782 2.199218 1.921874 0 3.839843-.734375 5.304687-2.199218 2.929687-2.929688 2.929687-7.675782 0-10.605469l-70-70.003907c-2.929687-2.925781-7.679687-2.929687-10.609375 0-2.925781 2.929688-2.925781 7.679688 0 10.609376zm0 0" fill="#259a4e"/><path d="m284.929688 231.863281c0-34.242187-12.332032-67.34375-34.71875-93.203125-22.15625-25.59375-52.691407-42.5-85.980469-47.605468-4.09375-.636719-7.921875 2.183593-8.550781 6.277343-.628907 4.089844 2.179687 7.921875 6.277343 8.546875 34.09375 5.230469 63.542969 24.1875 83.03125 50.65625h-158.105469c-2.679687 0-5.152343 1.429688-6.492187 3.75l-24.378906 42.222656c-1.339844 2.320313-1.339844 5.183594 0 7.5l17.882812 30.972657h-58.5625c-.214843-3.023438-.332031-6.066407-.332031-9.113281 0-65.789063 49.292969-120.3125 114.660156-126.828126 4.121094-.410156 7.128906-4.085937 6.71875-8.207031-.414062-4.121093-4.082031-7.125-8.207031-6.71875-34.972656 3.484375-67.316406 19.777344-91.074219 45.871094-23.921875 26.269531-37.097656 60.324219-37.097656 95.878906 0 33.5625 11.902344 66.160157 33.519531 91.789063 1.480469 1.757812 3.601563 2.664062 5.734375 2.664062 1.707032 0 3.425782-.578125 4.832032-1.765625 3.167968-2.671875 3.570312-7.402343.898437-10.570312-14.09375-16.710938-23.566406-36.742188-27.671875-58h118.324219c2.679687 0 5.152343-1.429688 6.496093-3.75l24.375-42.222657c1.339844-2.320312 1.339844-5.179687 0-7.5l-17.882812-30.972656h105.902344c9.832031 18.117188 15.402344 38.726563 15.402344 60.328125 0 70.285157-57.183594 127.464844-127.464844 127.464844-26.605469 0-52.089844-8.113281-73.703125-23.457031-3.378907-2.398438-8.0625-1.605469-10.460938 1.773437-2.394531 3.375-1.601562 8.058594 1.773438 10.457031 24.167969 17.15625 52.65625 26.226563 82.390625 26.226563 78.554687 0 142.464844-63.90625 142.464844-142.464844zm-153.621094 9.117188h-40.09375l-20.046875-34.722657 20.046875-34.722656h40.09375l20.046875 34.722656zm0 0" fill="#259a4e"/><path d="m507.035156 211.472656-4.21875-4.214844c5.851563-9.304687 8.804688-20.121093 8.429688-31.429687-.515625-15.613281-7.269532-29.878906-19.023438-40.167969l-70.113281-61.398437c-5.558594-4.867188-13.796875-4.949219-19.445313-.425781l-71.140624-71.140626c-2.925782-2.925781-7.675782-2.925781-10.605469 0-2.929688 2.929688-2.929688 7.679688 0 10.609376l71.339843 71.335937c-3.230468 5.097656-3.1875 11.710937.425782 16.789063 2.070312 2.917968 19.585937 29.140624-3.285156 52.011718-14.492188 14.492188-29.980469 20.636719-43.988282 22.507813v-16.601563c0-8.355468-6.800781-15.15625-15.15625-15.15625h-14.78125c-2.703125 0-5.234375.71875-7.433594 1.964844l-51.230468-51.226562c-2.929688-2.929688-7.679688-2.929688-10.605469 0-2.929687 2.929687-2.929687 7.675781 0 10.605468l54.117187 54.117188v13.425781c-1.238281.472656-2.433593 1.097656-3.539062 1.902344-3.890625 2.828125-6.164062 7.207031-6.234375 12.015625l-.882813 57.21875c-.742187 31.972656-13.601562 62.035156-36.21875 84.648437l-23.097656 23.101563c-6.460937 6.457031-9.335937 15.335937-7.886718 24.351562 1.449218 9.019532 6.960937 16.550782 15.117187 20.664063 11.445313 5.765625 23.75 8.570312 35.953125 8.570312 11.449219 0 22.804688-2.480469 33.265625-7.292969l6.726563 6.726563c3.320312 3.320313 7.722656 4.964844 12.210937 4.964844 4.855469 0 9.820313-1.921875 13.632813-5.734375 3.453124-3.453125 5.488281-7.964844 5.726562-12.703125.25-4.949219-1.554688-9.738281-4.957031-13.140625l-3.210938-3.210938 2.828125-2.824218 3.210938 3.210937c3.320312 3.316406 7.722656 4.964844 12.210937 4.964844 4.855469 0 9.820313-1.925781 13.632813-5.738281 7.335937-7.335938 7.683594-18.929688.769531-25.84375l-3.210937-3.207032 2.828124-2.828125 3.210938 3.210938c3.320312 3.320312 7.71875 4.96875 12.210938 4.96875 4.855468 0 9.816406-1.929688 13.628906-5.738281 3.457031-3.453126 5.488281-7.964844 5.730468-12.703126.25-4.949218-1.554687-9.738281-4.957031-13.140624l-3.210937-3.210938 51.960937-51.960938 3.210938 3.210938c3.320312 3.320312 7.722656 4.964844 12.210937 4.964844 4.855469 0 9.820313-1.925782 13.632813-5.734375 3.453125-3.457031 5.488281-7.96875 5.726562-12.703125.25-4.949219-1.554687-9.738282-4.957031-13.140625l-3.210938-3.210938 2.828126-2.828125 3.210937 3.210938c3.320313 3.320312 7.71875 4.964844 12.210937 4.964844 4.855469 0 9.820313-1.925782 13.632813-5.738282 7.332031-7.339844 7.679687-18.933594.769531-25.84375zm-80.878906 53.242188h-123.429688c1.121094-6.628906 1.777344-13.378906 1.933594-20.210938l.03125-2.070312h143.746094zm-24.1875 24.191406h-105.640625c1.101563-3.027344 2.097656-6.089844 2.984375-9.191406h111.84375zm-37.289062 37.285156h-88.9375c5.425781-7 10.132812-14.460937 14.089843-22.285156h97.132813zm131.574218-149.867187c.378906 11.417969-3.863281 22.15625-11.941406 30.234375l-5.890625 5.894531c-4.246094-2.40625-8.160156-5.378906-11.664063-8.878906-20.027343-20.027344-21.160156-51.894531-3.421874-73.273438l19.003906 16.640625c8.59375 7.527344 13.539062 17.960938 13.914062 29.382813zm-96.246094-12.277344c22.445313-22.445313 18.632813-51.988281 4.898438-71.300781 0 0-.011719-.074219.058594-.144532l7.050781-7.050781c.058594-.058593.152344-.0625.210937-.007812l39.824219 34.875c-22.894531 27.269531-21.539062 68.121093 4.101563 93.761719 3.472656 3.476562 7.277344 6.542968 11.351562 9.183593l-4.066406 4.070313h-158.515625l.617187-40.207032c.003907-.054687.003907-.070312.058594-.113281.039063-.027343.066406-.035156.09375-.035156.023438 0 .046875.003906.070313.015625 16.378906 5.027344 58.347656 12.851562 94.246093-23.046875zm-84.535156-4.855469h14.78125c.085938 0 .152344.070313.152344.15625v17.113282c-5.578125-.339844-10.679688-1.222657-15.089844-2.296876v-14.816406c0-.085937.070313-.15625.15625-.15625zm-71.144531 224.390625c-3.808594-1.917969-6.378906-5.433593-7.054687-9.644531-.679688-4.210938.664062-8.355469 3.679687-11.367188l21.375-21.378906h87.351563l-30.339844 30.339844c-19.828125 19.828125-49.972656 24.671875-75.011719 12.050781zm84.429687 10.023438c-1.589843 1.59375-3.71875 1.683593-4.628906.773437l-3.941406-3.941406c2.0625-1.492188 4.0625-3.09375 6.003906-4.800781l3.335938 3.339843c.53125.527344.609375 1.257813.585937 1.777344-.050781 1.003906-.546875 2.042969-1.355469 2.851563zm30.210938-34.070313c.914062.914063.820312 3.039063-.769531 4.628906-1.589844 1.59375-3.71875 1.6875-4.628907.773438l-3.210937-3.210938 5.398437-5.398437zm29.441406-29.4375c.53125.527344.609375 1.257813.582032 1.773438-.050782 1.003906-.542969 2.042968-1.351563 2.855468-1.59375 1.589844-3.71875 1.683594-4.628906.769532l-3.210938-3.210938 5.398438-5.398437zm78.574219-78.578125c.53125.527344.609375 1.257813.585937 1.777344-.050781 1.003906-.546874 2.042969-1.355468 2.851563-1.589844 1.59375-3.71875 1.683593-4.628906.769531l-3.210938-3.207031 5.402344-5.402344zm28.671875-24.8125c-1.589844 1.59375-3.71875 1.6875-4.628906.773438l-3.210938-3.210938 5.398438-5.398437 3.210937 3.207031c.914063.914063.820313 3.039063-.769531 4.628906zm0 0" fill="#259a4e"/><path d="m127.683594 312.152344h24.320312c4.140625 0 7.5-3.355469 7.5-7.5 0-4.140625-3.359375-7.5-7.5-7.5h-24.320312c-4.140625 0-7.5 3.359375-7.5 7.5 0 4.144531 3.359375 7.5 7.5 7.5zm0 0" fill="#259a4e"/><path d="m127.683594 332.617188h24.320312c4.140625 0 7.5-3.355469 7.5-7.5 0-4.140626-3.359375-7.5-7.5-7.5h-24.320312c-4.140625 0-7.5 3.359374-7.5 7.5 0 4.144531 3.359375 7.5 7.5 7.5zm0 0" fill="#259a4e"/><path d="m216.414062 260.84375c0-12.808594-10.421874-23.226562-23.226562-23.226562-12.808594 0-23.226562 10.417968-23.226562 23.226562s10.417968 23.226562 23.226562 23.226562c12.804688 0 23.226562-10.421874 23.226562-23.226562zm-31.453124 0c0-4.535156 3.6875-8.226562 8.226562-8.226562 4.535156 0 8.226562 3.691406 8.226562 8.226562s-3.691406 8.226562-8.226562 8.226562c-4.539062 0-8.226562-3.691406-8.226562-8.226562zm0 0" fill="#259a4e"/><path d="m256.007812 66.144531h17.460938c4.140625 0 7.5-3.359375 7.5-7.5 0-4.144531-3.359375-7.5-7.5-7.5h-17.460938c-4.144531 0-7.5 3.355469-7.5 7.5 0 4.140625 3.355469 7.5 7.5 7.5zm0 0" fill="#259a4e"/><path d="m266.222656 76.359375c0 4.140625 3.355469 7.5 7.5 7.5h17.460938c4.140625 0 7.5-3.359375 7.5-7.5 0-4.144531-3.359375-7.5-7.5-7.5h-17.460938c-4.144531 0-7.5 3.355469-7.5 7.5zm0 0" fill="#259a4e"/><path d="m283.9375 94.074219c0 4.140625 3.355469 7.5 7.5 7.5h17.460938c4.140624 0 7.5-3.359375 7.5-7.5 0-4.144531-3.359376-7.5-7.5-7.5h-17.460938c-4.144531 0-7.5 3.355469-7.5 7.5zm0 0" fill="#259a4e"/></svg>
